<svg xmlns="http://www.w3.org/2000/svg" width="720" height="720" viewBox="0 0 720 720" role="img" aria-label="Scatter plot for 100 icons"><rect x="0" y="0" width="720" height="720" fill="#ffffff"/><text x="360" y="28" text-anchor="middle" font-size="18" fill="#111827">Scatter Plot (100 icons): Bundle Delta vs Source Gzip</text><line x1="100.00" y1="70" x2="100.00" y2="630" stroke="#e5e7eb" stroke-width="1"/><line x1="212.00" y1="70" x2="212.00" y2="630" stroke="#e5e7eb" stroke-width="1"/><line x1="324.00" y1="70" x2="324.00" y2="630" stroke="#e5e7eb" stroke-width="1"/><line x1="436.00" y1="70" x2="436.00" y2="630" stroke="#e5e7eb" stroke-width="1"/><line x1="548.00" y1="70" x2="548.00" y2="630" stroke="#e5e7eb" stroke-width="1"/><line x1="660.00" y1="70" x2="660.00" y2="630" stroke="#e5e7eb" stroke-width="1"/><line x1="100" y1="630.00" x2="660" y2="630.00" stroke="#e5e7eb" stroke-width="1"/><line x1="100" y1="518.00" x2="660" y2="518.00" stroke="#e5e7eb" stroke-width="1"/><line x1="100" y1="406.00" x2="660" y2="406.00" stroke="#e5e7eb" stroke-width="1"/><line x1="100" y1="294.00" x2="660" y2="294.00" stroke="#e5e7eb" stroke-width="1"/><line x1="100" y1="182.00" x2="660" y2="182.00" stroke="#e5e7eb" stroke-width="1"/><line x1="100" y1="70.00" x2="660" y2="70.00" stroke="#e5e7eb" stroke-width="1"/><line x1="100" y1="630" x2="660" y2="630" stroke="#111827" stroke-width="1.5"/><line x1="100" y1="70" x2="100" y2="630" stroke="#111827" stroke-width="1.5"/><line x1="100.00" y1="630.00" x2="660.00" y2="70.00" stroke="#6b7280" stroke-width="2" stroke-dasharray="7 6"/><text x="652.00" y="88.00" text-anchor="end" font-size="12" fill="#4b5563">Ideal 1:1 Ratio</text><text x="100.00" y="692" text-anchor="middle" font-size="12" fill="#374151">0.0</text><text x="212.00" y="692" text-anchor="middle" font-size="12" fill="#374151">92.1</text><text x="324.00" y="692" text-anchor="middle" font-size="12" fill="#374151">184.3</text><text x="436.00" y="692" text-anchor="middle" font-size="12" fill="#374151">276.4</text><text x="548.00" y="692" text-anchor="middle" font-size="12" fill="#374151">368.6</text><text x="660.00" y="692" text-anchor="middle" font-size="12" fill="#374151">460.7</text><text x="90" y="634.00" text-anchor="end" font-size="12" fill="#374151">0.0</text><text x="90" y="522.00" text-anchor="end" font-size="12" fill="#374151">92.1</text><text x="90" y="410.00" text-anchor="end" font-size="12" fill="#374151">184.3</text><text x="90" y="298.00" text-anchor="end" font-size="12" fill="#374151">276.4</text><text x="90" y="186.00" text-anchor="end" font-size="12" fill="#374151">368.6</text><text x="90" y="74.00" text-anchor="end" font-size="12" fill="#374151">460.7</text><text x="380" y="700" text-anchor="middle" font-size="13" fill="#111827">Source Gzip (KB)</text><text x="24" y="350" text-anchor="middle" font-size="13" fill="#111827" transform="rotate(-90 24 350)">Bundle Delta vs Base (KB)</text><circle cx="108.67" cy="619.57" r="7" fill="#1f77b4" opacity="0.9"/><text x="118.67" y="609.57" font-size="12" fill="#111827">lucide (7.13, 8.58)</text><circle cx="109.08" cy="618.79" r="7" fill="#ff7f0e" opacity="0.9"/><text x="119.08" y="608.79" font-size="12" fill="#111827">heroicons (7.47, 9.23)</text><circle cx="222.12" cy="552.97" r="7" fill="#2ca02c" opacity="0.9"/><text x="232.12" y="542.97" font-size="12" fill="#111827">radix (100.47, 63.37)</text><circle cx="103.54" cy="570.84" r="7" fill="#d62728" opacity="0.9"/><text x="113.54" y="560.84" font-size="12" fill="#111827">phosphor (2.91, 48.68)</text><circle cx="110.53" cy="608.52" r="7" fill="#9467bd" opacity="0.9"/><text x="120.53" y="598.52" font-size="12" fill="#111827">iconify (8.66, 17.67)</text><circle cx="609.09" cy="531.14" r="7" fill="#8c564b" opacity="0.9"/><text x="619.09" y="521.14" font-size="12" fill="#111827">react-icons (418.85, 81.34)</text></svg>