<svg xmlns="http://www.w3.org/2000/svg" width="860" height="520" viewBox="0 0 860 520" role="img" aria-label="Scatter plot for 50 icons"><rect x="0" y="0" width="860" height="520" fill="#ffffff"/><text x="430" y="28" text-anchor="middle" font-size="18" fill="#111827">Scatter Plot (50 icons): Bundle Delta vs Source Gzip</text><line x1="90.00" y1="50" x2="90.00" y2="450" stroke="#e5e7eb" stroke-width="1"/><line x1="236.80" y1="50" x2="236.80" y2="450" stroke="#e5e7eb" stroke-width="1"/><line x1="383.60" y1="50" x2="383.60" y2="450" stroke="#e5e7eb" stroke-width="1"/><line x1="530.40" y1="50" x2="530.40" y2="450" stroke="#e5e7eb" stroke-width="1"/><line x1="677.20" y1="50" x2="677.20" y2="450" stroke="#e5e7eb" stroke-width="1"/><line x1="824.00" y1="50" x2="824.00" y2="450" stroke="#e5e7eb" stroke-width="1"/><line x1="90" y1="450.00" x2="824" y2="450.00" stroke="#e5e7eb" stroke-width="1"/><line x1="90" y1="370.00" x2="824" y2="370.00" stroke="#e5e7eb" stroke-width="1"/><line x1="90" y1="290.00" x2="824" y2="290.00" stroke="#e5e7eb" stroke-width="1"/><line x1="90" y1="210.00" x2="824" y2="210.00" stroke="#e5e7eb" stroke-width="1"/><line x1="90" y1="130.00" x2="824" y2="130.00" stroke="#e5e7eb" stroke-width="1"/><line x1="90" y1="50.00" x2="824" y2="50.00" stroke="#e5e7eb" stroke-width="1"/><line x1="90" y1="450" x2="824" y2="450" stroke="#111827" stroke-width="1.5"/><line x1="90" y1="50" x2="90" y2="450" stroke="#111827" stroke-width="1.5"/><text x="90.00" y="492" text-anchor="middle" font-size="12" fill="#374151">0.0</text><text x="236.80" y="492" text-anchor="middle" font-size="12" fill="#374151">92.1</text><text x="383.60" y="492" text-anchor="middle" font-size="12" fill="#374151">184.3</text><text x="530.40" y="492" text-anchor="middle" font-size="12" fill="#374151">276.4</text><text x="677.20" y="492" text-anchor="middle" font-size="12" fill="#374151">368.6</text><text x="824.00" y="492" text-anchor="middle" font-size="12" fill="#374151">460.7</text><text x="80" y="454.00" text-anchor="end" font-size="12" fill="#374151">0.0</text><text x="80" y="374.00" text-anchor="end" font-size="12" fill="#374151">17.8</text><text x="80" y="294.00" text-anchor="end" font-size="12" fill="#374151">35.7</text><text x="80" y="214.00" text-anchor="end" font-size="12" fill="#374151">53.5</text><text x="80" y="134.00" text-anchor="end" font-size="12" fill="#374151">71.3</text><text x="80" y="54.00" text-anchor="end" font-size="12" fill="#374151">89.2</text><text x="457" y="514" text-anchor="middle" font-size="13" fill="#111827">Source Gzip (KB)</text><text x="20" y="250" text-anchor="middle" font-size="13" fill="#111827" transform="rotate(-90 20 250)">Bundle Delta vs Base (KB)</text><circle cx="96.90" cy="426.84" r="7" fill="#1f77b4" opacity="0.9"/><text x="106.90" y="416.84" font-size="12" fill="#111827">lucide (4.33, 5.16)</text><circle cx="94.37" cy="434.36" r="7" fill="#ff7f0e" opacity="0.9"/><text x="104.37" y="424.36" font-size="12" fill="#111827">heroicons (2.75, 3.49)</text><circle cx="250.06" cy="166.83" r="7" fill="#2ca02c" opacity="0.9"/><text x="260.06" y="156.83" font-size="12" fill="#111827">radix (100.47, 63.13)</text><circle cx="92.94" cy="297.90" r="7" fill="#d62728" opacity="0.9"/><text x="102.94" y="287.90" font-size="12" fill="#111827">phosphor (1.84, 33.91)</text><circle cx="96.27" cy="398.30" r="7" fill="#9467bd" opacity="0.9"/><text x="106.27" y="388.30" font-size="12" fill="#111827">iconify (3.93, 11.53)</text><circle cx="757.27" cy="86.36" r="7" fill="#8c564b" opacity="0.9"/><text x="767.27" y="76.36" font-size="12" fill="#111827">react-icons (418.85, 81.07)</text></svg>