<svg xmlns="http://www.w3.org/2000/svg" width="720" height="720" viewBox="0 0 720 720" role="img" aria-label="Scatter plot for 50 icons"><rect x="0" y="0" width="720" height="720" fill="#ffffff"/><text x="360" y="28" text-anchor="middle" font-size="18" fill="#111827">Scatter Plot (50 icons): Bundle Delta vs Source Gzip</text><line x1="100.00" y1="70" x2="100.00" y2="630" stroke="#e5e7eb" stroke-width="1"/><line x1="212.00" y1="70" x2="212.00" y2="630" stroke="#e5e7eb" stroke-width="1"/><line x1="324.00" y1="70" x2="324.00" y2="630" stroke="#e5e7eb" stroke-width="1"/><line x1="436.00" y1="70" x2="436.00" y2="630" stroke="#e5e7eb" stroke-width="1"/><line x1="548.00" y1="70" x2="548.00" y2="630" stroke="#e5e7eb" stroke-width="1"/><line x1="660.00" y1="70" x2="660.00" y2="630" stroke="#e5e7eb" stroke-width="1"/><line x1="100" y1="630.00" x2="660" y2="630.00" stroke="#e5e7eb" stroke-width="1"/><line x1="100" y1="518.00" x2="660" y2="518.00" stroke="#e5e7eb" stroke-width="1"/><line x1="100" y1="406.00" x2="660" y2="406.00" stroke="#e5e7eb" stroke-width="1"/><line x1="100" y1="294.00" x2="660" y2="294.00" stroke="#e5e7eb" stroke-width="1"/><line x1="100" y1="182.00" x2="660" y2="182.00" stroke="#e5e7eb" stroke-width="1"/><line x1="100" y1="70.00" x2="660" y2="70.00" stroke="#e5e7eb" stroke-width="1"/><line x1="100" y1="630" x2="660" y2="630" stroke="#111827" stroke-width="1.5"/><line x1="100" y1="70" x2="100" y2="630" stroke="#111827" stroke-width="1.5"/><line x1="100.00" y1="630.00" x2="660.00" y2="70.00" stroke="#6b7280" stroke-width="2" stroke-dasharray="7 6"/><text x="652.00" y="88.00" text-anchor="end" font-size="12" fill="#4b5563">Ideal 1:1 Ratio</text><text x="100.00" y="692" text-anchor="middle" font-size="12" fill="#374151">0.0</text><text x="212.00" y="692" text-anchor="middle" font-size="12" fill="#374151">92.1</text><text x="324.00" y="692" text-anchor="middle" font-size="12" fill="#374151">184.3</text><text x="436.00" y="692" text-anchor="middle" font-size="12" fill="#374151">276.4</text><text x="548.00" y="692" text-anchor="middle" font-size="12" fill="#374151">368.6</text><text x="660.00" y="692" text-anchor="middle" font-size="12" fill="#374151">460.7</text><text x="90" y="634.00" text-anchor="end" font-size="12" fill="#374151">0.0</text><text x="90" y="522.00" text-anchor="end" font-size="12" fill="#374151">92.1</text><text x="90" y="410.00" text-anchor="end" font-size="12" fill="#374151">184.3</text><text x="90" y="298.00" text-anchor="end" font-size="12" fill="#374151">276.4</text><text x="90" y="186.00" text-anchor="end" font-size="12" fill="#374151">368.6</text><text x="90" y="74.00" text-anchor="end" font-size="12" fill="#374151">460.7</text><text x="380" y="700" text-anchor="middle" font-size="13" fill="#111827">Source Gzip (KB)</text><text x="24" y="350" text-anchor="middle" font-size="13" fill="#111827" transform="rotate(-90 24 350)">Bundle Delta vs Base (KB)</text><circle cx="105.26" cy="623.72" r="7" fill="#1f77b4" opacity="0.9"/><text x="115.26" y="613.72" font-size="12" fill="#111827">lucide (4.33, 5.16)</text><circle cx="103.34" cy="625.76" r="7" fill="#ff7f0e" opacity="0.9"/><text x="113.34" y="615.76" font-size="12" fill="#111827">heroicons (2.75, 3.49)</text><circle cx="222.12" cy="553.27" r="7" fill="#2ca02c" opacity="0.9"/><text x="232.12" y="543.27" font-size="12" fill="#111827">radix (100.47, 63.13)</text><circle cx="102.24" cy="588.79" r="7" fill="#d62728" opacity="0.9"/><text x="112.24" y="578.79" font-size="12" fill="#111827">phosphor (1.84, 33.91)</text><circle cx="104.78" cy="615.99" r="7" fill="#9467bd" opacity="0.9"/><text x="114.78" y="605.99" font-size="12" fill="#111827">iconify (3.93, 11.53)</text><circle cx="609.09" cy="531.47" r="7" fill="#8c564b" opacity="0.9"/><text x="619.09" y="521.47" font-size="12" fill="#111827">react-icons (418.85, 81.07)</text></svg>